<?xml version="1.0" encoding="UTF-8" standalone="no"?>
<svg
   xmlns:dc="http://purl.org/dc/elements/1.1/"
   xmlns:cc="http://creativecommons.org/ns#"
   xmlns:rdf="http://www.w3.org/1999/02/22-rdf-syntax-ns#"
   xmlns:svg="http://www.w3.org/2000/svg"
   xmlns="http://www.w3.org/2000/svg"
   viewBox="0 0 261.61249 61.75"
   height="61.75"
   width="261.61249"
   xml:space="preserve"
   version="1.1"
   id="svg3438"><metadata
     id="metadata3444"><rdf:RDF><cc:Work
         rdf:about=""><dc:format>image/svg+xml</dc:format><dc:type
           rdf:resource="http://purl.org/dc/dcmitype/StillImage" /><dc:title></dc:title></cc:Work></rdf:RDF></metadata><defs
     id="defs3442" /><g
     transform="matrix(1.25,0,0,-1.25,0,61.75)"
     id="g3446"><g
       transform="scale(0.1,0.1)"
       id="g3448"><path
         id="path3450"
         style="fill:#d01f25;fill-opacity:1;fill-rule:nonzero;stroke:none"
         d="m 1490.37,182.891 5.98,0 c 6.46,0 7.26,-1.446 7.26,-12.266 l 0,-39.414 c 0,-7.43 -0.8,-10.164 -9.04,-10.164 l -5.17,0 0,-7.922 45.23,0 0,7.922 -2.27,0 c -8.24,0 -9.04,2.734 -9.04,10.164 l 0,26.496 c 0,15.176 8.07,23.563 19.86,23.563 8.72,0 14.21,-5.157 14.21,-16.622 l 0,-33.437 c 0,-7.43 -0.8,-10.164 -9.04,-10.164 l -2.26,0 0,-7.922 44.25,0 0,7.922 -4.2,0 c -8.24,0 -9.04,2.734 -9.04,10.164 l 0,38.117 c 0,17.449 -12.28,24.551 -28.1,24.551 -13.09,0 -22.29,-5.488 -27.78,-18.574 l -0.33,0 0,17.929 c -7.91,-0.968 -22.28,-1.933 -30.52,-1.933 l 0,-8.41 z m -12.76,-31.973 0,3.723 c 0,27.129 -10.82,39.238 -36.82,39.238 -27.13,0 -38.76,-17.766 -38.76,-41.672 0,-23.906 11.63,-41.66 38.76,-41.66 26.98,0 35.05,13.887 35.21,27.773 l -16.48,0 c -0.16,-12.117 -5,-18.418 -16.79,-18.418 -19.87,0 -20.03,20.032 -20.03,31.016 l 54.91,0 z m -54.91,9.367 c 0,13.574 4.04,24.707 17.93,24.707 13.89,0 17.28,-11.465 17.28,-24.707 l -35.21,0 z m -61.53,5.488 c 0,-14.043 -4.04,-20.832 -12.76,-20.832 -8.55,0 -14.05,6.133 -14.05,20.676 0,14.051 4.85,19.375 13.89,19.375 7.75,0 12.92,-4.512 12.92,-19.219 m 6.78,-66.2105 c 0,-7.4219 -5,-15.1875 -20.34,-15.1875 -13.57,0 -18.9,6.4648 -18.9,14.375 0,8.566 4.85,15.664 19.38,15.664 14.05,0 19.86,-6.621 19.86,-14.8515 m 23.42,93.0275 -23.9,-2.102 c -4.52,1.289 -11.95,3.391 -18.73,3.391 -21.16,0 -35.05,-12.109 -35.05,-27.785 0,-14.688 9.21,-21.961 21.32,-25.84 l 0,-0.32 c -11.14,-0.969 -15.83,-5.012 -15.83,-10.168 0,-5.489 3.72,-8.243 14.54,-10.34 l 0,-0.324 c -11.31,-1.122 -24.7,-7.11 -24.7,-20.184 0,-13.086 11.13,-23.418 36.66,-23.418 27.12,0 41.98,8.875 41.98,23.8945 0,19.0625 -15.18,21.3205 -30.36,22.4535 -17.77,1.289 -20.68,2.91 -20.68,7.429 0,5.325 7.27,6.133 12.6,6.946 l 3.88,0.644 c 22.61,3.719 29.71,15.828 29.71,28.75 0,6.942 -3.07,13.242 -7.1,16.309 l 0,0.32 15.66,0 0,10.344 z m -190.73,-9.699 5.98,0 c 6.46,0 7.26,-1.446 7.26,-12.266 l 0,-39.414 c 0,-7.43 -0.8,-10.164 -9.04,-10.164 l -5.17,0 0,-7.922 45.22,0 0,7.922 -2.26,0 c -8.23,0 -9.04,2.734 -9.04,10.164 l 0,26.496 c 0,15.176 8.07,23.563 19.86,23.563 8.72,0 14.21,-5.157 14.21,-16.622 l 0,-33.437 c 0,-7.43 -0.8,-10.164 -9.03,-10.164 l -2.27,0 0,-7.922 44.25,0 0,7.922 -4.2,0 c -8.23,0 -9.03,2.734 -9.03,10.164 l 0,38.117 c 0,17.449 -12.29,24.551 -28.11,24.551 -13.09,0 -22.29,-5.488 -27.78,-18.574 l -0.32,0 0,17.929 c -7.92,-0.968 -22.29,-1.933 -30.53,-1.933 l 0,-8.41 z m -43.76,36.015 c 0,-6.941 4.19,-12.109 11.78,-12.109 7.6,0 11.79,5.168 11.79,12.109 0,6.946 -4.19,12.121 -11.79,12.121 -7.59,0 -11.78,-5.175 -11.78,-12.121 m -10.99,-36.015 5.98,0 c 6.46,0 7.27,-1.446 7.27,-12.266 l 0,-39.414 c 0,-7.43 -0.81,-10.164 -9.05,-10.164 l -5.17,0 0,-7.922 47.16,0 0,7.922 -4.2,0 c -8.23,0 -9.04,2.734 -9.04,10.164 l 0,62.023 c -10.34,-0.968 -24.71,-1.933 -32.95,-1.933 l 0,-8.41 z m -108.51,0 5.96,0 c 6.46,0 7.27,-1.446 7.27,-12.266 l 0,-39.414 c 0,-7.43 -0.81,-10.164 -9.04,-10.164 l -5.17,0 0,-7.922 45.22,0 0,7.922 -2.26,0 c -8.23,0 -9.05,2.734 -9.05,10.164 l 0,26.496 c 0,15.176 8.08,23.563 19.87,23.563 8.72,0 14.21,-5.157 14.21,-16.622 l 0,-33.437 c 0,-7.43 -0.8,-10.164 -9.04,-10.164 l -2.27,0 0,-7.922 44.26,0 0,7.922 -4.2,0 c -8.24,0 -9.05,2.734 -9.05,10.164 l 0,38.117 c 0,17.449 -12.27,24.551 -28.1,24.551 -13.08,0 -22.29,-5.488 -27.78,-18.574 l -0.32,0 0,17.929 c -7.91,-0.968 -22.29,-1.933 -30.51,-1.933 l 0,-8.41 z m -88.349,-30.684 c 0,-23.906 11.621,-41.66 38.762,-41.66 27.127,0 38.757,17.754 38.757,41.66 0,23.906 -11.63,41.672 -38.757,41.672 -27.141,0 -38.762,-17.766 -38.762,-41.672 m 20.672,0 c 0,21.965 4.84,32.297 18.09,32.297 13.237,0 18.087,-10.332 18.087,-32.297 0,-21.961 -4.85,-32.305 -18.087,-32.305 -13.25,0 -18.09,10.344 -18.09,32.305 m -100.648,30.684 6.937,0 c 6.457,0 7.27,-1.446 7.27,-12.266 l 0,-39.414 c 0,-7.43 -0.813,-10.164 -9.039,-10.164 l -5.168,0 0,-7.922 51.515,0 0,7.922 -8.558,0 c -8.242,0 -9.047,2.734 -9.047,10.164 l 0,26.496 c 0,13.555 7.426,23.563 14.855,23.563 6.301,0 8.082,-4.512 8.243,-12.586 l 15.5,0 0,23.25 c -3.711,1.3 -8.235,1.945 -12.918,1.945 -13.082,0 -22.282,-5.488 -27.782,-18.574 l -0.32,0 0,17.929 c -7.91,-0.968 -22.289,-1.933 -31.488,-1.933 l 0,-8.41 z m -37.633,-17.118 c 0,-14.043 -4.039,-20.832 -12.762,-20.832 -8.558,0 -14.047,6.133 -14.047,20.676 0,14.051 4.852,19.375 13.887,19.375 7.75,0 12.922,-4.512 12.922,-19.219 m 6.781,-66.2105 c 0,-7.4219 -5,-15.1875 -20.351,-15.1875 -13.559,0 -18.891,6.4648 -18.891,14.375 0,8.566 4.844,15.664 19.379,15.664 14.055,0 19.863,-6.621 19.863,-14.8515 m 23.418,93.0275 -23.902,-2.102 c -4.516,1.289 -11.949,3.391 -18.735,3.391 -21.152,0 -35.043,-12.109 -35.043,-27.785 0,-14.688 9.2,-21.961 21.325,-25.84 l 0,-0.32 c -11.157,-0.969 -15.832,-5.012 -15.832,-10.168 0,-5.489 3.707,-8.243 14.527,-10.34 l 0,-0.324 c -11.301,-1.122 -24.707,-7.11 -24.707,-20.184 0,-13.086 11.144,-23.418 36.668,-23.418 27.129,0 41.988,8.875 41.988,23.8945 0,19.0625 -15.191,21.3205 -30.367,22.4535 -17.762,1.289 -20.672,2.91 -20.672,7.429 0,5.325 7.27,6.133 12.602,6.946 l 3.867,0.644 c 22.613,3.719 29.723,15.828 29.723,28.75 0,6.942 -3.075,13.242 -7.11,16.309 l 0,0.32 15.668,0 0,10.344" /><path
         id="path3452"
         style="fill:#d01f25;fill-opacity:1;fill-rule:nonzero;stroke:none"
         d="m 2028.67,343.43 14.21,0 0,-46.36 c 0,-20.027 9.03,-25.351 25.36,-25.351 15.67,0 24.7,7.754 24.7,25.039 l 0,3.547 -13.56,0 0,-8.242 c 0,-6.934 -2.58,-10.012 -8.4,-10.012 -5.8,0 -8.4,3.078 -8.4,10.012 l 0,51.367 25.84,0 0,9.363 -25.84,0 0,22.773 -14.04,0 c -1.29,-16.308 -4.85,-21.003 -19.87,-22.773 l 0,-9.363 z m -42.8,36.972 c 0,-6.933 4.2,-12.109 11.79,-12.109 7.59,0 11.79,5.176 11.79,12.109 0,6.953 -4.2,12.118 -11.79,12.118 -7.59,0 -11.79,-5.165 -11.79,-12.118 m -10.99,-36.007 5.98,0 c 6.46,0 7.27,-1.454 7.27,-12.274 l 0,-39.406 c 0,-7.43 -0.81,-10.164 -9.04,-10.164 l -5.16,0 0,-7.93 47.14,0 0,7.93 -4.19,0 c -8.25,0 -9.05,2.734 -9.05,10.164 l 0,62.023 c -10.33,-0.976 -24.7,-1.945 -32.95,-1.945 l 0,-8.398 z m -12.75,-31.981 0,3.719 c 0,27.129 -10.82,39.238 -36.82,39.238 -27.13,0 -38.77,-17.754 -38.77,-41.668 0,-23.898 11.64,-41.66 38.77,-41.66 26.98,0 35.04,13.895 35.2,27.781 l -16.47,0 c -0.15,-12.117 -5,-18.418 -16.79,-18.418 -19.87,0 -20.02,20.032 -20.02,31.008 l 54.9,0 z m -54.9,9.375 c 0,13.563 4.03,24.707 17.93,24.707 13.88,0 17.27,-11.476 17.27,-24.707 l -35.2,0 z m -96.42,21.641 14.21,0 0,-46.36 c 0,-20.027 9.04,-25.351 25.35,-25.351 15.67,0 24.71,7.754 24.71,25.039 l 0,3.547 -13.56,0 0,-8.242 c 0,-6.934 -2.59,-10.012 -8.39,-10.012 -5.83,0 -8.4,3.078 -8.4,10.012 l 0,51.367 25.84,0 0,9.363 -25.84,0 0,22.773 -14.07,0 c -1.28,-16.308 -4.83,-21.003 -19.85,-22.773 l 0,-9.363 z m -42.8,36.972 c 0,-6.933 4.2,-12.109 11.79,-12.109 7.59,0 11.79,5.176 11.79,12.109 0,6.953 -4.2,12.118 -11.79,12.118 -7.59,0 -11.79,-5.165 -11.79,-12.118 m -10.98,-36.007 5.97,0 c 6.46,0 7.27,-1.454 7.27,-12.274 l 0,-39.406 c 0,-7.43 -0.81,-10.164 -9.04,-10.164 l -5.17,0 0,-7.93 47.16,0 0,7.93 -4.2,0 c -8.24,0 -9.05,2.734 -9.05,10.164 l 0,62.023 c -10.33,-0.976 -24.71,-1.945 -32.94,-1.945 l 0,-8.398 z m -77.36,-67.176 c 4.68,-1.946 16.47,-5.176 29.71,-5.176 16.96,0 34.89,7.273 34.89,26.16 0,12.277 -6.14,16.965 -20.03,21.485 l -13.24,4.355 c -7.43,2.422 -11.63,6.777 -11.63,12.922 0,6.465 4.69,9.531 12.11,9.531 11.63,0 14.7,-5.168 14.7,-17.598 l 13.57,0 0,22.118 c -4.69,2.101 -15.51,4.355 -27.78,4.355 -19.06,0 -32.3,-8.875 -32.3,-23.574 0,-12.598 9.04,-19.383 27.78,-25.027 14.85,-4.524 17.12,-8.079 17.12,-14.055 0,-7.43 -6.79,-11.785 -17.12,-11.785 -11.15,0 -14.22,7.422 -14.22,18.894 l -13.56,0 0,-22.605 z m -83.85,67.176 6.95,0 c 6.46,0 7.26,-1.454 7.26,-12.274 l 0,-39.406 c 0,-7.43 -0.8,-10.164 -9.04,-10.164 l -5.17,0 0,-7.93 51.52,0 0,7.93 -8.56,0 c -8.24,0 -9.04,2.734 -9.04,10.164 l 0,26.484 c 0,13.567 7.43,23.574 14.85,23.574 6.3,0 8.08,-4.519 8.24,-12.585 l 15.5,0 0,23.25 c -3.71,1.3 -8.23,1.933 -12.92,1.933 -13.08,0 -22.28,-5.488 -27.77,-18.562 l -0.33,0 0,17.929 c -7.91,-0.976 -22.28,-1.945 -31.49,-1.945 l 0,-8.398 z m -11.79,-31.981 0,3.719 c 0,27.129 -10.82,39.238 -36.82,39.238 -27.13,0 -38.76,-17.754 -38.76,-41.668 0,-23.898 11.63,-41.66 38.76,-41.66 26.97,0 35.05,13.895 35.21,27.781 l -16.48,0 c -0.16,-12.117 -5,-18.418 -16.79,-18.418 -19.87,0 -20.03,20.032 -20.03,31.008 l 54.91,0 z m -54.91,9.375 c 0,13.563 4.04,24.707 17.93,24.707 13.89,0 17.28,-11.476 17.28,-24.707 l -35.21,0 z m -59.77,23.086 6.79,0 c 3.71,0 4.68,-0.957 4.68,-2.102 0,-1.289 -0.32,-2.898 -0.81,-4.031 l -16.79,-47.969 -0.32,0 -15.51,45.547 c -0.48,1.61 -1.45,3.555 -1.45,5.653 0,1.769 1.61,2.902 6.46,2.902 l 5.33,0 0,7.918 -40.38,0 0,-7.918 1.94,0 c 3.55,0 4.52,-0.957 6.62,-6.289 l 25.03,-64.934 19.06,0 25.03,65.735 c 1.62,4.199 3.07,5.488 6.46,5.488 l 2.1,0 0,7.918 -34.24,0 0,-7.918 z m -89.8,35.527 c 0,-6.933 4.2,-12.109 11.79,-12.109 7.59,0 11.79,5.176 11.79,12.109 0,6.953 -4.2,12.118 -11.79,12.118 -7.59,0 -11.79,-5.165 -11.79,-12.118 m -10.98,-36.007 5.97,0 c 6.46,0 7.27,-1.454 7.27,-12.274 l 0,-39.406 c 0,-7.43 -0.81,-10.164 -9.04,-10.164 l -5.17,0 0,-7.93 47.16,0 0,7.93 -4.2,0 c -8.24,0 -9.05,2.734 -9.05,10.164 l 0,62.023 c -10.33,-0.976 -24.71,-1.945 -32.94,-1.945 l 0,-8.398 z m -108.53,0 5.98,0 c 6.46,0 7.26,-1.454 7.26,-12.274 l 0,-39.406 c 0,-7.43 -0.8,-10.164 -9.04,-10.164 l -5.17,0 0,-7.93 45.22,0 0,7.93 -2.26,0 c -8.24,0 -9.04,2.734 -9.04,10.164 l 0,26.484 c 0,15.188 8.07,23.574 19.86,23.574 8.72,0 14.21,-5.156 14.21,-16.628 l 0,-33.43 c 0,-7.43 -0.8,-10.164 -9.04,-10.164 l -2.26,0 0,-7.93 44.25,0 0,7.93 -4.2,0 c -8.24,0 -9.04,2.734 -9.04,10.164 l 0,38.105 c 0,17.453 -12.28,24.551 -28.11,24.551 -13.08,0 -22.28,-5.488 -27.77,-18.562 l -0.33,0 0,17.929 c -7.91,-0.976 -22.28,-1.945 -30.52,-1.945 l 0,-8.398 z m -39.08,-69.774 30.52,0 0,7.93 -4.2,0 c -8.23,0 -9.04,2.734 -9.04,10.164 l 0,62.023 c -10.34,-0.976 -24.71,-1.945 -32.95,-1.945 l 0,-8.398 5.98,0 c 6.46,0 7.27,-1.454 7.27,-12.274 l 0,-22.129 c 0,-16.633 -5.98,-25.351 -19.71,-25.351 -9.2,0 -14.37,4.687 -14.37,14.218 l 0,55.879 c -10.34,-0.976 -24.71,-1.945 -32.95,-1.945 l 0,-8.398 5.98,0 c 6.46,0 7.27,-1.454 7.27,-12.274 l 0,-37.793 c 0,-15.012 9.69,-22.285 25.68,-22.285 16.31,0 26.48,7.098 30.2,17.918 l 0.32,0 0,-15.34 z m -146.8,2.598 c 4.68,-1.946 16.47,-5.176 29.71,-5.176 16.96,0 34.89,7.273 34.89,26.16 0,12.277 -6.14,16.965 -20.03,21.485 l -13.24,4.355 c -7.43,2.422 -11.63,6.777 -11.63,12.922 0,6.465 4.68,9.531 12.11,9.531 11.63,0 14.7,-5.168 14.7,-17.598 l 13.56,0 0,22.118 c -4.68,2.101 -15.5,4.355 -27.77,4.355 -19.06,0 -32.3,-8.875 -32.3,-23.574 0,-12.598 9.04,-19.383 27.77,-25.027 14.86,-4.524 17.12,-8.079 17.12,-14.055 0,-7.43 -6.78,-11.785 -17.12,-11.785 -11.14,0 -14.21,7.422 -14.21,18.894 l -13.56,0 0,-22.605 z m -103.691,104.969 5.98,0 c 6.461,0 7.274,-1.454 7.274,-12.274 l 0,-77.199 c 0,-7.43 -0.813,-10.164 -9.055,-10.164 l -5.164,0 0,-7.93 45.216,0 0,7.93 -2.26,0 c -8.23,0 -9.04,2.734 -9.04,10.164 l 0,99.805 c -10.338,-0.965 -24.709,-1.934 -32.951,-1.934 l 0,-8.398 z m 46.841,-37.313 8.07,0 c 1.13,0 2.59,-0.637 2.59,-2.258 0,-1.289 -1.13,-2.586 -7.92,-9.531 L 1005.2,317.59 c 22.93,-29.883 23.57,-31.016 23.57,-32.305 0,-1.613 -1.61,-2.734 -4.03,-2.734 l -3.23,0 0,-7.93 40.86,0 0,7.93 c -6.62,0.156 -8.72,1.121 -14.54,8.387 l -23.42,29.562 20.84,20.664 c 3.07,2.91 5,3.711 7.75,3.711 l 5.33,0 0,7.918 -41.02,0 0,-7.918 z m -90.599,35.527 c 0,-6.933 4.195,-12.109 11.789,-12.109 7.59,0 11.789,5.176 11.789,12.109 0,6.953 -4.199,12.118 -11.789,12.118 -7.594,0 -11.789,-5.165 -11.789,-12.118 m -32.301,-140.5 c 3.231,-0.808 11.297,-2.91 21.309,-2.91 27.14,0 32.953,16.965 32.953,33.117 l 0,84.629 c -10.664,-0.976 -25.035,-1.945 -36.344,-1.945 l 0,-8.398 9.055,0 c 6.461,0 7.586,-1.454 7.586,-12.274 l 0,-65.402 c 0,-15.028 -4.688,-19.383 -11.789,-19.383 -7.27,0 -9.211,5 -9.211,12.598 l -13.559,0 0,-20.032 z m -22.453,140.5 c 0,-6.933 4.203,-12.109 11.793,-12.109 7.59,0 11.793,5.176 11.793,12.109 0,6.953 -4.203,12.118 -11.793,12.118 -7.59,0 -11.793,-5.165 -11.793,-12.118 m -10.977,-36.007 5.969,0 c 6.457,0 7.27,-1.454 7.27,-12.274 l 0,-39.406 c 0,-7.43 -0.813,-10.164 -9.039,-10.164 l -5.168,0 0,-7.93 47.156,0 0,7.93 -4.199,0 c -8.239,0 -9.047,2.734 -9.047,10.164 l 0,62.023 c -10.332,-0.976 -24.711,-1.945 -32.942,-1.945 l 0,-8.398 z m -82.527,0 6.938,0 c 6.461,0 7.269,-1.454 7.269,-12.274 l 0,-39.406 c 0,-7.43 -0.808,-10.164 -9.043,-10.164 l -5.164,0 0,-7.93 51.52,0 0,7.93 -8.563,0 c -8.242,0 -9.051,2.734 -9.051,10.164 l 0,26.484 c 0,13.567 7.43,23.574 14.864,23.574 6.297,0 8.074,-4.519 8.238,-12.585 l 15.5,0 0,23.25 c -3.711,1.3 -8.231,1.933 -12.918,1.933 -13.082,0 -22.281,-5.488 -27.773,-18.562 l -0.329,0 0,17.929 c -7.91,-0.976 -22.281,-1.945 -31.488,-1.945 l 0,-8.398" /><path
         id="path3454"
         style="fill:#d01f25;fill-opacity:1;fill-rule:nonzero;stroke:none"
         d="M 691.973,353.965 405.18,0 382.395,0.0195313 669.148,353.945 l 22.825,0.02" /><path
         id="path3456"
         style="fill:#d01f25;fill-opacity:1;fill-rule:nonzero;stroke:none"
         d="m 138.535,422.891 c -2.082,-0.313 -5.019,-1.141 -6.738,2.578 -1.555,3.371 4.277,8.828 6.207,10.586 2.5,2.285 -0.746,4.738 -2.656,2.07 -0.535,-0.742 -5.106,-7.195 -8.692,-7.195 -5.562,0 -5.238,6.523 -5.238,6.523 0,0 -6.215,3.953 -6.215,16.531 0,11.184 7.391,16.536 7.391,16.536 0,0 0.051,6.367 5.035,6.21 4.965,-0.167 8.187,-7.011 8.504,-7.48 2.512,-3.781 5.676,-0.566 3.472,2.129 -5.21,6.348 -6.308,11.355 -0.613,14.031 2.071,4.727 8.321,8.047 15.145,8.574 l 0.226,0.012 0.223,0.02 c 6.82,-0.559 13.07,-3.879 15.141,-8.606 5.699,-2.676 4.597,-7.683 -0.61,-14.031 -2.203,-2.695 0.957,-5.91 3.477,-2.129 0.312,0.469 3.527,7.313 8.511,7.48 4.969,0.157 5.028,-6.21 5.028,-6.21 0,0 7.383,-5.352 7.383,-16.536 0,-12.578 -6.211,-16.531 -6.211,-16.531 0,0 0.324,-6.523 -5.239,-6.523 -3.582,0 -8.148,6.453 -8.691,7.195 -1.898,2.668 -5.16,0.215 -2.66,-2.07 1.93,-1.758 7.769,-7.215 6.211,-10.586 -1.711,-3.719 -4.653,-2.891 -6.738,-2.578 0,0 -1.911,-3.321 -4.801,-3.328 14.437,-10.793 37.109,-4.68 40.148,3.222 0,0 -3.84,-0.762 -3.801,3.262 0.028,2.441 2.508,3.758 5.86,4.246 -0.699,1.543 -1.051,3.391 -0.93,5.402 0.332,5.664 4.231,10.41 8.731,10.614 4.488,0.187 7.863,-4.239 7.531,-9.891 -0.16,-2.852 -1.242,-5.469 -2.844,-7.402 3.293,-1.125 5.609,-2.813 5.305,-4.778 -0.801,-5.195 -5.614,-3.914 -5.614,-3.914 -0.578,-11.867 17.524,-14.14 22.153,-11.074 -1.832,6.844 0.902,8.906 2.992,10.75 1.488,1.32 5.918,4.043 6.527,4.445 1.383,0.899 2.102,2.821 1.231,3.535 -0.813,0.665 -2.621,-0.488 -3.481,-1.445 -1.222,-1.379 -3.371,-4.64 -6.738,-3.75 -4.074,1.074 -2.312,5.731 -3.004,8.242 -4.336,15.828 -0.629,26.864 15.199,33.496 0,0 6.024,6.336 11.422,3.485 5.172,-2.742 1.961,-11.192 1.961,-11.192 l 1.598,-0.75 c 5.781,10.489 14.14,18.094 26.133,18.399 8.496,0.215 12.597,-4.797 12.929,-11.66 0.739,-15.285 -14.882,-9.59 -13.66,-3.879 0,0 -3.781,-0.391 -5.859,-3.711 0,0.957 0.121,10.031 -7.981,5.234 -2.308,-1.367 -6.39,-8.222 -6.687,-9.09 -1.012,-3.007 0.449,-3.488 -1.125,-6.425 -1.231,-2.297 -2.949,-2.832 -3.688,-4.434 -0.75,-1.602 0.321,-4.766 -0.703,-6.797 -1.238,-2.492 -2.945,-2.676 -4.066,-4.933 -0.895,-1.778 -12.199,-30.606 -12.199,-30.606 0,0 4.5,-2.879 3.64,-7.156 -1.14,-5.742 -4.789,-4.504 -6.734,-8.274 -61.418,15.801 -124.988,15.891 -190.6877,0.274 -1.9726,3.437 -5.4687,2.394 -6.5898,8 -0.8633,4.277 3.6406,7.156 3.6406,7.156 0,0 -11.3125,28.828 -12.2031,30.606 -1.1172,2.257 -2.8242,2.441 -4.0664,4.933 -1.0196,2.031 0.0468,5.195 -0.7032,6.797 -0.7382,1.602 -2.457,2.137 -3.6757,4.434 -1.5743,2.937 -0.1211,3.418 -1.1329,6.425 -0.289,0.868 -4.3789,7.723 -6.6914,9.09 -8.0898,4.797 -7.9687,-4.277 -7.9765,-5.234 -2.0703,3.32 -5.8594,3.711 -5.8594,3.711 1.2188,-5.711 -14.402344,-11.406 -13.6640625,3.879 0.3320315,6.863 4.4296925,11.875 12.9296625,11.66 12.0039,-0.305 20.3516,-7.91 26.1328,-18.399 l 1.6055,0.75 c 0,0 -3.207,8.45 1.9649,11.192 5.3906,2.851 11.4101,-3.485 11.4101,-3.485 15.8281,-6.632 19.5391,-17.668 15.1953,-33.496 -0.6875,-2.511 1.0742,-7.168 -2.9961,-8.242 -3.3711,-0.89 -5.5078,2.371 -6.7383,3.75 -0.8515,0.957 -2.664,2.11 -3.4804,1.445 -0.8594,-0.714 -0.1524,-2.636 1.2265,-3.535 0.6133,-0.402 5.0391,-3.125 6.5313,-4.445 2.0898,-1.844 4.8164,-3.906 3.0039,-10.75 4.6172,-3.066 22.7187,-0.793 22.1445,11.074 0,0 -4.8164,-1.281 -5.6172,3.914 -0.3007,1.965 2.0118,3.653 5.2969,4.778 -1.5976,1.933 -2.664,4.55 -2.8359,7.402 -0.3321,5.652 3.0351,10.078 7.539,9.891 4.4922,-0.204 8.3981,-4.95 8.7301,-10.614 0.106,-2.011 -0.242,-3.859 -0.945,-5.402 3.352,-0.488 5.844,-1.805 5.867,-4.246 0.039,-4.024 -3.804,-3.262 -3.804,-3.262 3.043,-7.902 25.711,-14.015 40.16,-3.222 -2.899,0.007 -4.809,3.328 -4.809,3.328 m 5.211,29.562 c 0,-5.859 4.75,-10.617 10.609,-10.617 5.872,0 10.622,4.758 10.622,10.617 0,5.86 -4.75,10.613 -10.622,10.613 -5.859,0 -10.609,-4.753 -10.609,-10.613 m 58.578,-46.035 c 4.571,0.125 13.512,-1.738 13.512,-1.738 0,0 -3.801,4.246 -5.543,7.136 0,0 -2.027,-1.902 -3.258,-2.793 -0.961,-0.703 -4.711,-2.605 -4.711,-2.605 m -47.961,9.305 c -1.789,-1.993 -5.246,-5.399 -9.008,-6.688 0,0 6.188,0.156 8.868,0.203 l 0.273,0 c 2.676,-0.047 8.879,-0.203 8.879,-0.203 -3.77,1.289 -7.23,4.695 -9.012,6.688 m -47.968,-9.305 c 0,0 -3.75,1.902 -4.711,2.605 -1.231,0.891 -3.2621,2.793 -3.2621,2.793 -1.7383,-2.89 -5.5352,-7.136 -5.5352,-7.136 0,0 8.9373,1.863 13.5083,1.738 m 140.531,-28.684 c 2.937,-0.789 7.078,-3.691 5.941,-7.937 -1.144,-4.258 -6.172,-4.699 -9.121,-3.906 -2.949,0.781 -7.082,3.679 -5.941,7.937 1.14,4.258 6.172,4.699 9.121,3.906 m -38.59,1.153 -8.949,-7.52 -7.512,8.957 8.949,7.508 7.512,-8.945 z M 66.0078,365.891 c -2.9492,-0.793 -7.9805,-0.352 -9.1211,3.906 -1.1406,4.246 2.9961,7.148 5.9414,7.937 2.9492,0.793 7.9766,0.352 9.1133,-3.906 1.1445,-4.258 -2.9883,-7.156 -5.9336,-7.937 m 79.5392,15.828 c 0,3.371 4.18,6.105 9.324,6.105 5.152,0 9.332,-2.734 9.332,-6.105 0,-3.387 -4.18,-6.121 -9.332,-6.121 -5.144,0 -9.324,2.734 -9.324,6.121 m -44.129,-2.832 7.508,8.945 8.949,-7.508 -7.508,-8.957 -8.949,7.52 z M 24.8438,108.652 c 1.0195,4.075 5.3515,3.164 5.3515,3.164 0,0 -1.0312,3.75 2.7891,5.469 4.2422,1.895 6.3515,-2.781 6.3515,-2.781 l 1.7774,-12.051 -12.8477,0.43 c 0,0 -4.5508,1.258 -3.4218,5.769 m 18.2031,19.953 c 1.0078,4.063 5.3476,3.153 5.3476,3.153 0,0 -1.0312,3.75 2.793,5.469 4.2383,1.906 6.3359,-2.774 6.3359,-2.774 l 1.7852,-12.058 -12.8438,0.429 c 0,0 -4.5507,1.27 -3.4179,5.781 m 18.1875,19.95 c 1.0234,4.062 5.3515,3.144 5.3515,3.144 0,0 -1.0273,3.75 2.7891,5.481 4.2383,1.894 6.3477,-2.785 6.3477,-2.785 l 1.7812,-12.051 -12.8516,0.429 c 0,0 -4.5468,1.27 -3.4179,5.782 m 93.2386,184.718 c 1.019,4.071 5.351,3.165 5.351,3.165 0,0 -1.031,3.75 2.793,5.468 4.238,1.903 6.336,-2.785 6.336,-2.785 l 1.793,-12.051 -12.851,0.43 c 0,0 -4.551,1.27 -3.422,5.773 m 17.785,-68.027 c 1.019,4.07 5.347,3.164 5.347,3.164 0,0 -1.027,3.75 2.79,5.457 4.238,1.906 6.339,-2.773 6.339,-2.773 l 1.789,-12.051 -12.847,0.422 c 0,0 -4.555,1.269 -3.418,5.781 m 21.347,22.606 c 1.02,4.074 5.348,3.156 5.348,3.156 0,0 -1.019,3.758 2.801,5.469 4.242,1.914 6.344,-2.774 6.344,-2.774 l 1.773,-12.062 -12.836,0.429 c 0,0 -4.551,1.27 -3.43,5.782 m 21.36,22.617 c 1.019,4.054 5.351,3.144 5.351,3.144 0,0 -1.031,3.75 2.797,5.469 4.231,1.914 6.34,-2.762 6.34,-2.762 l 1.781,-12.062 -12.839,0.43 c 0,0 -4.563,1.269 -3.43,5.781 m 21.359,22.609 c 1.02,4.063 5.352,3.145 5.352,3.145 0,0 -1.031,3.75 2.789,5.468 4.242,1.914 6.351,-2.773 6.351,-2.773 l 1.778,-12.051 -12.848,0.43 c 0,0 -4.551,1.269 -3.422,5.781 M 12.7539,180.871 c 1.0195,4.063 5.3516,3.152 5.3516,3.152 0,0 -1.0313,3.762 2.789,5.469 4.2422,1.914 6.3516,-2.762 6.3516,-2.762 l 1.7773,-12.062 -12.8476,0.43 c 0,0 -4.5508,1.269 -3.4219,5.773 M 62.3438,59.8555 c 1.0195,4.0625 5.3515,3.1523 5.3515,3.1523 0,0 -1.0312,3.75 2.7891,5.4688 4.2422,1.9062 6.3515,-2.7813 6.3515,-2.7813 l 1.7774,-12.0508 -12.8477,0.4297 c 0,0 -4.5508,1.2696 -3.4218,5.7813 m 21.1132,22.957 c 1.0157,4.0625 5.3477,3.1563 5.3477,3.1563 0,0 -1.0234,3.75 2.8008,5.4687 4.2304,1.9023 6.3398,-2.7852 6.3398,-2.7852 l 1.7813,-12.0507 -12.8399,0.4297 c 0,0 -4.5625,1.2695 -3.4297,5.7812 m 21.117,22.9605 c 1.024,4.063 5.352,3.153 5.352,3.153 0,0 -1.031,3.75 2.789,5.469 4.238,1.914 6.34,-2.774 6.34,-2.774 l 1.789,-12.0585 -12.852,0.4297 c 0,0 -4.547,1.2698 -3.418,5.7808 m 21.11,22.957 c 1.019,4.075 5.351,3.165 5.351,3.165 0,0 -1.031,3.75 2.789,5.46 4.242,1.915 6.352,-2.773 6.352,-2.773 l 1.777,-12.062 -12.848,0.429 c 0,0 -4.55,1.281 -3.421,5.781 m 92.992,97.629 c 1.019,4.063 5.347,3.153 5.347,3.153 0,0 -1.031,3.75 2.801,5.461 4.231,1.914 6.34,-2.766 6.34,-2.766 l 1.781,-12.059 -12.84,0.43 c 0,0 -4.562,1.27 -3.429,5.781 m 19.039,20.762 c 1.019,4.063 5.351,3.152 5.351,3.152 0,0 -1.031,3.762 2.789,5.469 4.239,1.914 6.352,-2.762 6.352,-2.762 l 1.777,-12.062 -12.851,0.43 c 0,0 -4.547,1.269 -3.418,5.773 m 19.039,20.77 c 1.019,4.062 5.351,3.156 5.351,3.156 0,0 -1.031,3.75 2.79,5.469 4.242,1.914 6.351,-2.786 6.351,-2.786 l 1.781,-12.05 -12.851,0.429 c 0,0 -4.551,1.282 -3.422,5.782 m 19.043,20.773 c 1.019,4.063 5.348,3.152 5.348,3.152 0,0 -1.028,3.75 2.793,5.469 4.238,1.906 6.343,-2.781 6.343,-2.781 l 1.785,-12.051 -12.851,0.43 c 0,0 -4.551,1.269 -3.418,5.781 M 128.012,39.4727 c 1.019,4.0625 5.351,3.1562 5.351,3.1562 0,0 -1.027,3.75 2.793,5.4688 4.239,1.9023 6.348,-2.7852 6.348,-2.7852 l 1.781,-12.0508 -12.847,0.4297 c 0,0 -4.551,1.2695 -3.426,5.7813 m 147.89,163.6723 c 1.024,4.074 5.352,3.164 5.352,3.164 0,0 -1.027,3.75 2.789,5.468 4.242,1.895 6.352,-2.781 6.352,-2.781 l 1.777,-12.051 -12.848,0.418 c 0,0 -4.551,1.27 -3.422,5.782 M 132.855,186.719 c 0,0.625 1.012,0.527 2.93,0.851 1.918,0.313 3.629,0.957 3.629,0.313 0,-0.957 -1.328,-0.207 -1.328,-1.758 l 0,-15 c 0,-0.754 1.012,-0.207 1.012,-0.801 0,-0.754 -1.813,-0.429 -3.153,-0.429 -1.39,0 -3.152,-0.325 -3.152,0.273 0,1.004 1.23,0 1.23,0.957 l 0,14.246 c 0,1.504 -1.168,0.117 -1.168,1.348 m -16.289,-6.492 c 0,0.418 0.528,0.468 1.493,0.957 0.964,0.468 1.546,1.015 2.406,0.261 0.848,-0.75 5.492,-6.082 5.492,-6.082 l 0,7.578 c 0,0.86 -1.492,-0.265 -1.492,0.586 0,0.633 0.64,0.633 1.703,1.063 1.066,0.43 2.617,1.601 2.617,0.859 0,-0.906 -1.117,-0.633 -1.117,-1.816 l 0,-14.617 c 0,-1.231 -0.113,-1.231 -0.641,-1.231 -0.324,0 -7.711,9.305 -7.711,9.305 l 0,-9.922 c 0,-0.906 1.789,0.344 1.789,-0.508 0,-0.476 -1.07,-0.742 -2.14,-1.172 -1.07,-0.418 -2.559,-1.121 -2.559,-0.586 0,0.899 1.328,0.586 1.328,1.496 l 0,12.86 c 0,0.969 -1.168,0.215 -1.168,0.969 m -5.781,-9.153 c 0,6.192 -3.949,3.887 -3.949,3.887 l 0,-12.723 c 0,0 3.949,0.078 3.949,8.836 m -9.23,2.559 c 0,0.449 1.922,1.164 3.203,1.758 2.297,1.074 9.715,4.863 9.715,-4.266 0,-8.379 -5.879,-9.766 -7.739,-10.617 -1.871,-0.86 -4.398,-2.09 -4.589,-1.68 -0.329,0.656 1.007,0.762 1.007,2.258 l 0,10.41 c 0,2.617 -1.597,1.258 -1.597,2.137 m 25.851,37.824 c -0.043,0.391 1.512,0.652 2.301,0.867 1.34,0.364 2.188,0.617 2.75,0.059 0.555,-0.567 3.301,-4.988 3.301,-4.988 0,0 3.527,4.988 3.808,5.32 0.278,0.344 0.391,0.812 1.801,0.84 1.617,0.031 2.348,0.195 2.348,-0.137 0,-0.613 -1.012,-0.313 -1.07,-1.602 -0.04,-1.003 0,-12.937 0,-13.613 0,-1.523 1.043,-1.004 1.043,-1.523 0,-0.496 -0.676,-0.293 -3.051,-0.274 -1.961,0.032 -3.282,-0.254 -3.282,0.117 0,0.676 1.04,0.11 1.04,1.485 l 0,9.101 c 0,0 -3.418,-4.988 -3.59,-4.988 -0.2,0 -4.371,6.367 -4.371,6.367 l 0,-10.898 c 0,-1.75 1.73,-0.723 1.73,-1.406 0,-0.344 -1.32,-0.489 -2.293,-0.735 -1.117,-0.273 -2.098,-0.691 -2.215,-0.379 -0.238,0.672 1.211,0.301 1.211,2.266 0,1.738 0.02,11.738 0,12.469 -0.062,1.933 -1.402,1.093 -1.461,1.652 m -4.929,-1.906 c 0.582,0.273 2.109,1.105 2.289,0.851 0.269,-0.371 -0.61,-0.449 -1.219,-3.086 -0.231,-0.957 -3.102,-16.074 -4.172,-16.601 -0.344,-0.176 -5.211,11.902 -5.66,12.859 -0.801,1.711 -1.649,0.559 -1.813,1.172 -0.093,0.391 1.235,0.891 2.34,1.387 0.594,0.273 2.746,1.574 2.977,1.308 0.449,-0.507 -1.184,-0.527 -0.403,-2.371 0.52,-1.242 3.247,-7.257 3.247,-7.257 0,0 1.601,6.777 2.089,9.074 0.477,2.285 -1.277,1.152 -1.336,1.648 -0.031,0.293 0.848,0.664 1.602,0.988 l 0.059,0.028 z m -18.692,-15.86 0,-8.3 c 0,0 4.274,0.89 4.274,6.066 0,4.434 -4.274,2.234 -4.274,2.234 m -0.058,7.286 0,-5.497 c 0,0 3.097,1.153 3.097,3.829 0,3.191 -3.097,1.668 -3.097,1.668 m 0.328,1.425 c 1.808,0.696 6.558,1.653 6.558,-2.461 0,-2.937 -1.918,-3.621 -1.918,-3.621 0,0 3.469,-0.644 3.469,-3.527 0,-3.309 -1.598,-5.605 -3.41,-6.57 -0.926,-0.489 -6.621,-3.243 -7.156,-3.567 -0.535,-0.32 -1.8011,-1.015 -1.9457,-0.703 -0.3281,0.723 0.9337,0.598 0.9337,2.735 l 0,13.312 c 0,2.82 -1.3321,1.57 -1.3321,2.313 0,0.46 2.9411,1.378 4.8011,2.089 m 29.621,37.473 0,-6.719 c 0,0 3.16,0.203 3.16,3.836 0,4.328 -3.16,2.883 -3.16,2.883 m 8.351,-15 c 0.957,-0.117 1.387,0.262 1.387,0.262 0,0 -0.316,-2.403 -2.828,-2.403 -3.414,0 -3.359,5.871 -4.32,7.579 -0.961,1.71 -2.571,0.8 -2.571,0.8 l 0,-5.976 c 0,-1.922 1.2,-1.094 1.2,-1.797 0,-0.281 -0.93,-0.449 -0.93,-0.449 0,0 -2.61,-0.743 -3.57,-0.957 -0.961,-0.204 -1.379,-0.43 -1.379,0 0,0.761 0.949,0.273 0.949,2.375 l 0,12.351 c 0,2.403 -1.379,1.602 -1.41,2.278 -0.02,0.398 0.961,0.585 1.918,0.828 1.613,0.402 2.222,0.898 4.511,1.437 2.211,0.516 6.09,-0.539 6.09,-3.625 0,-3.426 -1.929,-4.109 -2.988,-4.91 3.941,-1.926 2.18,-7.578 3.941,-7.793 m -25.933,8.777 c 1.601,0.528 4.433,1.731 7.469,3.438 0.414,0.234 1.652,1.008 2.242,-0.106 0.613,-1.152 1.07,-2.668 0.699,-2.832 -0.547,-0.226 -0.906,0.223 -1.598,0.594 -0.609,0.324 -1.39,0.684 -2.14,0.481 -0.75,-0.215 -1.77,-0.664 -1.77,-0.664 l 0.012,-5.254 c 0,0 1.859,0 2.078,1.004 0.172,0.812 0.5,1.875 1.09,2.031 0.34,0.09 0.238,-0.985 0.277,-2.5 0.02,-0.516 0.055,-0.809 0.063,-1.094 0.039,-1.855 -0.075,-2.469 -0.34,-2.52 -0.508,-0.097 -0.938,1.25 -1.063,1.575 -0.218,0.554 -2.105,0.047 -2.105,-0.254 l 0,-7.571 c 0,0 1.437,0.774 2.078,1.153 0.867,0.508 2.34,2.199 2.91,3.203 0.559,0.988 0.781,1.797 1.301,1.711 0.332,-0.051 -0.371,-3.313 -0.371,-3.313 0,0 -0.051,-1.277 -1.121,-1.804 -1.059,-0.547 -7.032,-3.332 -7.547,-3.586 -1.024,-0.477 -2.25,-1.356 -2.274,-0.879 -0.027,0.754 0.989,0.351 0.989,2.558 l -0.032,12.618 c 0,0 -0.039,1.066 -0.847,1.211 -0.621,0.097 -1.199,0.39 0,0.8 m -13.961,-5.8 c 0.859,0.304 3.293,1.339 3.426,1.054 0.336,-0.761 -1.262,-0.593 -0.735,-2.109 0.449,-1.277 3.262,-7.957 3.262,-7.957 l 2.461,9.609 c 0.527,2.078 -1.152,1.356 -1.293,1.864 -0.09,0.351 1.23,0.753 1.98,1.074 0.614,0.285 2.59,1.133 2.704,0.879 0.257,-0.672 -0.754,-0.672 -1.282,-2.539 -0.64,-2.215 -4.379,-17.254 -5.422,-17.821 -0.589,-0.324 -5.742,12.645 -6.14,13.66 -0.403,1.008 -1.7854,0.625 -1.9182,1.231 -0.0586,0.234 2.0972,0.773 2.9572,1.055 m 67.625,-41.649 c -0.031,0.399 0.578,0.242 1.488,-0.039 0.906,-0.266 2,-0.539 2.746,-1.758 0.742,-1.222 6.375,-10.84 6.375,-10.84 l -0.039,8.68 c 0,1.152 -1.019,1.184 -1.019,1.66 0,0.442 0.773,0 1.593,-0.281 0.813,-0.273 2.004,-0.402 2.004,-0.781 0,-0.371 -1.051,0.176 -1.051,-0.84 l 0,-16.367 c 0,0 0,-0.715 -0.476,-0.059 -0.383,0.516 -8.816,14.09 -8.816,14.09 0,0 0.031,-8.504 0,-9.395 -0.028,-1.003 1.093,-0.906 1.093,-1.414 0,-0.519 -1.191,-0.246 -1.933,-0.109 -0.746,0.148 -1.868,0.031 -1.868,0.684 0,0.644 1.02,-0.34 1.02,1.183 l 0,13.926 c 0,1.055 -1.09,1.121 -1.117,1.66 m 7.957,25.067 c 0,0.617 2.68,-0.469 4.781,-1.075 2.098,-0.613 6.059,-1.257 6.059,-2.539 0,-1.582 0.41,-3.093 -0.098,-3.093 -0.312,0 -0.953,2 -1.594,2.656 -0.98,0.976 -2.976,1.414 -3.519,1.511 -0.551,0.11 -0.41,0.079 -0.41,-0.3 l 0,-5.09 c 0,0 1.351,-0.664 2.101,-0.332 0.75,0.332 0.848,1.523 1.289,1.426 0.43,-0.098 0.274,-1.016 0.199,-2.782 -0.07,-1.757 0.141,-3.359 -0.308,-3.183 -0.43,0.164 -0.469,1.66 -1.379,2.547 -0.918,0.879 -1.93,1.007 -1.93,1.007 l 0,-8.3 c 0,0 1.012,-1.114 3.11,-0.442 2.097,0.684 3.589,2.102 3.929,1.77 0.336,-0.344 0.172,-0.813 -0.84,-2.403 -1.019,-1.601 -1.562,-2.617 -2.582,-2.168 -1.019,0.438 -3.32,1.317 -4.738,1.954 -1.418,0.652 -4.367,1.367 -4.367,1.972 0,0.606 1.449,-0.508 1.449,1.25 l 0,14.199 c 0,0.711 -1.152,0.938 -1.152,1.415 m -3.43,2.433 c 0.75,0 0.598,-2.754 0.711,-3.652 0.207,-1.719 0.719,-3.223 0.18,-3.254 -0.813,-0.039 -1.781,2.687 -3.09,4.035 -1.231,1.27 -5.754,3.582 -5.754,-5.977 0,-8.183 3.551,-8.007 5.492,-7.402 1.903,0.606 2.692,2.098 2.91,1.953 0.231,-0.148 -1.57,-4.043 -5.531,-4.492 -3.961,-0.441 -7.836,3.438 -7.836,9.531 0,6.094 2.988,9.825 6.758,9.825 3.031,0 3.922,-2.09 5.219,-2.09 0.871,0 0.078,1.523 0.941,1.523 m 10.211,21.688 c 0.149,0.773 1.52,-0.196 3.762,-1.102 2.226,-0.93 3.855,-1.398 3.73,-1.777 -0.14,-0.364 -1.734,0.242 -1.535,-0.813 0.199,-1.043 2.711,-9.277 2.711,-9.277 0,0 2.91,6.906 2.981,7.18 0.21,0.847 -0.778,0.984 -0.68,1.394 0.109,0.43 0.988,-0.144 1.699,-0.547 0.711,-0.398 1.859,-0.769 1.66,-1.258 -0.203,-0.468 -1.051,0.614 -1.386,-0.195 -0.344,-0.812 -6.172,-13.887 -6.172,-13.887 l -5.832,18.797 c -0.329,1.086 -1.039,0.989 -0.938,1.485 m -13.32,5.05 c 0,0.45 0.82,0.079 0.82,0.079 l 5.176,-1.868 c 0,0 0.914,-0.312 0.887,-0.722 -0.032,-0.399 -1.766,0.519 -1.766,-1.043 l 0,-14.602 c 0,0 0.371,-0.976 2.102,-0.273 1.734,0.715 4.3,2.414 4.3,2.414 0,0 1.223,0.605 0.918,-0.246 -0.308,-0.848 -1.527,-3.555 -1.527,-3.555 0,0 -0.27,-1.055 -1.66,-0.809 -1.395,0.243 -4.813,1.289 -5.762,1.563 -0.949,0.262 -3.59,1.074 -3.59,1.074 0,0 -0.539,0.106 -0.539,0.516 0,0.402 1.66,-0.039 1.66,1.289 l 0,14.258 c 0,1.289 -1.019,1.32 -1.019,1.925 m 20.078,-51.582 c 0,1.004 1.391,-0.382 1.391,1.219 l 0,14.094 c 0,1.766 -0.797,1.699 -0.797,2.402 0,0.692 1.547,-0.324 1.918,-0.488 0.371,-0.148 4.425,-2.238 4.855,-2.453 0.422,-0.203 4.754,-1.981 4.754,-6.719 0,-3.262 -2.723,-2.734 -2.723,-2.734 0,0 2.723,-1.59 2.871,-3.992 0.172,-2.403 0.493,-4.434 0.493,-4.758 0,-0.313 0.48,-1.707 1.968,-0.43 0,0 0.172,-2.859 -3.089,-1.805 -2.129,0.692 -2.727,2.664 -2.879,4.004 -0.172,1.336 -0.911,7.774 -3.801,7.676 l 0,-6.457 c 0,-1.719 1.012,-1.23 1.012,-2.246 0,-0.645 -1.489,0.383 -2.825,0.918 -1.976,0.879 -3.148,1.172 -3.148,1.769 m 4.973,14.344 0,-6.562 c 0.429,-0.157 3.679,-2.235 3.679,1.816 0,4.055 -3.679,4.746 -3.679,4.746 m -7.149,-24.578 c 0.309,1.023 -0.656,1.309 -0.465,1.738 0.141,0.321 1.469,-0.402 2.27,-0.773 0.801,-0.371 2.031,-0.692 2.355,-1.785 0.317,-1.086 4.504,-15.383 4.907,-16.711 0.449,-1.492 1.328,-1.074 1.07,-1.758 -0.11,-0.273 -1.34,0.324 -3.77,1.281 -2.023,0.801 -3.019,1.055 -3.019,1.375 0,0.664 2.039,-0.429 1.558,0.957 -0.316,0.938 -1.019,3.391 -1.019,3.391 l -5.629,1.824 -0.805,-2.723 c -0.398,-1.359 0.887,-1.132 0.641,-1.64 -0.125,-0.285 -0.926,0.078 -1.969,0.508 -1,0.398 -1.43,0.476 -1.39,0.769 0.054,0.481 0.851,-0.215 1.222,0.762 0.379,0.996 3.758,11.914 4.043,12.785 m 0.887,-1.867 -1.961,-6.328 4.379,-1.465 -2.418,7.793 z m 112.801,176.758 0,-187.325 C 304.844,54.2969 213.305,14.5898 152.914,14.5898 92.5156,14.5898 0.976563,54.2969 3.05859,166.191 l 0,187.325 55.85941,0 c -0.3047,3.457 0.6367,5.871 0.7265,5.976 76.3125,15.285 113.2225,16.008 189.4725,-0.039 1.641,-1.98 1.946,-4.101 1.668,-5.937 l 51.981,0 z M 30.9844,81.9922 l 58.5039,62.3048 0,18.195 -6.6328,0.223 c 0,0 -4.5586,1.269 -3.4297,5.781 1.0195,4.074 5.3476,3.156 5.3476,3.156 0,0 -1.0195,3.75 2.8008,5.457 0.6914,0.325 1.3321,0.461 1.9141,0.469 l 0.0078,12.07 -73.1016,-77.839 c 3.75,-11.067 8.711,-20.977 14.5899,-29.8168 M 103.793,241.191 c 0.793,0.364 1.594,0.735 2.395,1.133 2.816,1.418 7.898,4.082 13.367,6.387 5.383,2.277 11.738,4.492 16.84,4.492 5.128,0 9.25,-1.543 12.082,-3.055 1.418,-0.761 2.531,-1.535 3.3,-2.121 l 0.278,-0.234 c 0.097,0.148 0.218,0.312 0.363,0.48 0.586,0.723 1.449,1.551 2.687,2.332 2.5,1.583 6.321,2.813 12.102,2.813 6.059,0 12.856,-2.422 18.34,-4.902 l 1.262,-0.586 93.988,100.097 -42.582,0 -82.781,-88.152 0,42.43 42.929,45.722 -189.82784,0 0,-181.882 c -0.1211,-6.797 0.10937,-13.313 0.66797,-19.571 l 40.95317,43.621 39.3398,0 0,34.758 c -0.7305,-1.015 -1.8516,-0.832 -1.8516,-0.832 0,0 0.9883,3 -1.7422,3.438 -0.2109,0.031 -0.4296,0.05 -0.6757,0.05 -1.5508,0 -2.4219,-0.781 -3.3516,-1.523 -1.4492,-1.164 -5.7539,-6.203 -6.5937,-7.023 -0.8399,0.82 -5.1446,5.859 -6.6055,7.023 -0.9219,0.742 -1.8008,1.523 -3.3399,1.523 -0.2539,0 -0.4804,-0.019 -0.6836,-0.05 -2.7382,-0.438 -1.7382,-3.438 -1.7382,-3.438 0,0 -2.4805,-0.41 -2.4805,3.359 0,2.668 2.1211,4.239 4,4.739 2.8398,0.644 5.6484,0.847 6.1797,5.547 0.0312,0.937 -0.1289,1.132 -0.1289,1.132 0,0 -1.0196,-1.554 -3.543,-2.753 -2.918,-1.524 -10.8086,-1.418 -10.6094,-5.938 -0.0586,-1.809 1.9258,-1.641 1.9258,-1.641 0,0 -0.1055,-0.82 -1.4336,-1.015 -0.2929,-0.051 -0.6367,-0.071 -1.0586,-0.039 -1.8281,0.261 -2.4414,2.195 -2.3086,4.636 0.1055,1.524 -0.914,3.547 -2.8906,3.254 -0.3398,-0.058 -0.7226,-0.175 -1.125,-0.39 -1.5078,-0.879 -0.9726,-2.317 -0.9726,-2.317 0,0 -1.7149,0.957 -1.4532,2.95 0.2305,1.71 1.3594,2.492 2.961,3.156 0.1992,0.039 0.3906,0.078 0.582,0.105 2.0469,0.313 3.7656,-0.301 3.7656,-0.301 0,0 -0.5195,1.563 -0.332,3.114 0.1719,1.34 0.8711,2.676 2.8711,3.047 2.9805,0.558 3.6211,-1.446 3.1719,-2.539 -0.1641,-0.106 -0.6875,0.683 -1.5391,0.558 -0.1211,-0.019 -0.25,-0.058 -0.3906,-0.117 -0.5,-0.266 -0.793,-0.598 -0.9414,-0.949 -0.5,-1.18 0.4804,-2.676 0.6523,-2.918 0.5977,-0.801 2.4375,-1.36 4.7266,-0.93 2.6601,0.578 4.5508,2.305 5.4687,3.848 0.4961,0.793 0.7031,1.543 0.6328,2.043 l 1.4493,16.101 c 0,0 0.4648,4.141 -2.3594,4.621 -0.3281,0.067 -0.6602,0.067 -1,0.02 -2.3789,-0.383 -4.8594,-3.547 -4.0781,-7.52 0.6015,-3.046 -0.961,-5.382 -2.461,-5.722 -1.9101,-0.449 -3.0703,-0.071 -3.7422,1.328 3.3321,0.215 3.1211,2.89 2.0703,3.848 -0.4492,0.398 -1.0976,0.507 -1.8476,0.398 -3.1133,-0.488 -8.0313,-4.773 -8.8203,-7.332 -0.711,-2.297 1.0117,-1.711 1.7383,-3.652 0.5937,-1.555 -0.7266,-2.793 -0.7266,-2.793 -0.043,-0.528 -0.1133,-0.977 -0.1992,-1.34 -0.3633,-1.356 -1.0625,-1.797 -1.7149,-1.895 -0.5078,-0.078 -0.9843,0.059 -1.2383,0.137 0.8282,0.363 1.0821,1.133 1.1485,1.758 0.0508,0.441 0.0117,0.793 0.0117,0.793 0,0 -0.9297,-0.098 -1.7383,1.152 -0.9414,1.465 0.2188,1.922 -0.8125,3.496 -1.0469,1.57 -3.9492,3.25 -6.2187,3.543 -0.1524,0.02 -0.2891,0.012 -0.4297,-0.008 -0.4414,-0.058 -0.8594,-0.293 -1.543,-0.39 -0.1875,-0.039 -0.4101,-0.059 -0.6601,-0.059 -1.7852,-0.039 -1.2969,1.055 -2.7696,0.926 -0.7617,-0.156 -1.1992,-0.879 -0.9492,-1.922 0.043,-0.156 -0.0781,-0.254 -0.0781,-0.254 -0.8125,0.547 -1.1485,1.297 -1.211,2.176 -0.0117,2.324 1.4688,3.965 2.8711,4.094 1.6602,0.156 2.4297,-0.871 2.5586,-1.067 0.9141,3.86 -2.1093,2.551 -3.5703,4.406 -0.9804,1.278 -0.5898,1.922 -0.4609,2.383 0.2031,0.692 -1.0078,0.782 -1.9258,0.633 -0.2656,-0.039 -0.5039,-0.098 -0.6758,-0.156 -0.1758,0.168 0.293,1.973 2.1914,2.246 0.6524,0.117 1.4805,0.031 2.5313,-0.359 0.9804,0.293 1.9179,-0.188 2.2695,-0.86 0.4219,-0.801 0.0703,-1.719 0.1836,-2.707 0.2969,-2.558 1.8672,-2.488 2.1094,-2.461 -1.3946,3.664 0.3594,4.746 0.539,5.324 0.1758,0.575 -0.0429,1.348 -0.9492,1.668 -0.1914,0.071 -0.4492,0.227 -0.1523,0.305 0,0 3.5078,0.156 4.0508,-2.141 0,0 1.5117,-0.8 1.5507,-2.695 0.0352,-2.363 -1.2421,-2.578 -1.7304,-3.047 0.3633,-2.468 1.8203,-2.879 3.1875,-2.675 1.3437,0.214 2.5859,1.007 2.5859,1.007 2.3086,0.918 7.0977,3.875 5.8047,6.297 -0.5859,1.106 -1.5586,1.574 -2.6289,1.418 -0.5117,-0.078 -1.0313,-0.305 -1.543,-0.664 -1.3867,-1.328 -0.6992,-3.066 -0.6992,-3.066 -2.1094,-0.559 -3.0977,3.105 -1.7773,4.656 0.9179,1.094 2.0468,1.523 3.2578,1.738 1.3828,0.246 2.8711,0.188 4.2929,0.481 1.6875,0.332 2.9766,1.386 4.2266,3.574 0.9258,1.531 0.9531,3.641 0.1523,5.32 -0.8203,1.836 -2.5078,4.141 -4.8828,4.571 -0.4492,-3.973 -2.6367,-7.098 -5.3164,-9.012 -0.6601,-0.461 -1.5273,-0.715 -2.1093,-0.813 -0.4727,-0.066 -0.7696,-0.039 -0.6602,0.11 3.4883,4.07 2.5898,8.359 2.4922,8.769 -0.2539,-0.469 -2.9844,-5.48 -7.8516,-7.629 -0.4687,-0.195 -0.9609,-0.32 -1.4609,-0.41 -2.6211,-0.41 -5.2383,0.813 -4.1992,0.949 1.7265,0.235 8.707,4.286 6.6054,12.891 -0.2695,-0.5 -3.3398,-5.977 -7.1172,-8.566 -1.6093,-1.114 -3.2929,-1.661 -4.7812,-1.883 -2.9805,-0.481 -5.2383,0.351 -4.8203,0.742 0,0 8.2226,3.895 8.3203,7.605 -0.2656,-0.214 -2.4883,-1.933 -5.0781,-2.332 -0.3516,-0.05 -0.711,-0.078 -1.0586,-0.078 -7.0117,0 -7.0117,5.039 -7.0117,5.039 0.4882,-0.05 7.039,-0.48 12.3867,10.879 0,0 -3.4844,-1.23 -7.5078,-1.672 -2.3789,-0.273 -3.3789,1.231 -3.0977,1.211 0.4219,-0.136 0.8906,-0.183 1.4922,-0.086 1.3164,0.204 3.1953,1.036 5.5859,2.871 -0.6406,0.282 -9.2304,4.09 -5.9101,9.989 0,0 2.3711,-2.071 5.2929,-2.332 2.1485,-0.188 5.8907,0.215 6.7969,2.371 0,0 -4.6289,0.265 -9.1719,3.125 -2.6796,1.672 -3.7265,5.644 -2.746,4.492 1,-1.18 2.0312,-1.531 3.5703,-1.922 1.1992,-0.305 2.0195,-0.019 2.0195,-0.019 0,0 -6.6719,6.316 -2.4492,11.218 0,0 2.25,-6.289 7.7773,-6.308 0,0 -2.8008,2.597 -3.3594,5.722 -0.3906,2.141 -0.2304,4.981 0.1602,4.172 0.2695,-0.566 0.8672,-1.574 1.2617,-2.304 0.6875,-1.243 2.1563,-2.903 3.3399,-3.918 0,0 -0.8399,3.293 0.3086,6.281 0.1679,0.457 1.7109,2.969 1.8203,2.344 0,0 0.0156,-1.973 0.1289,-2.61 0.3437,-2.117 1.1484,-4.773 5.1523,-8.847 5.0664,-5.164 10.5664,-5.125 10.6094,-8.36 -0.1992,-3.847 -4.9414,-3.347 -8.0508,-3.074 -1.0781,0 -0.9414,-1.652 -0.039,-2.832 2.5859,-3.469 13.5703,-4.309 17.0078,1.316 1.2187,1.973 1.5507,4.329 0.7304,6.524 -1.039,2.922 -3.3984,3.008 -7.8789,3.984 -3.1797,0.684 -2.3203,2.11 -1.8515,2.11 0,0 0.9726,-0.547 1.9101,-0.547 2.3516,-0.02 0.9219,3.008 0.6719,2.968 -0.6016,-0.085 -3.1406,-1.113 -5.332,-1.296 -2.7774,-0.247 -6.1055,0.867 -6.1055,2.8 0,2.317 2.9102,2.969 2.7773,2.356 -0.0312,-0.149 -1.75,-3.293 3.3789,-3.117 1.6211,0.05 4.8907,0.234 4.8829,0.382 -0.1055,0.86 -1.6211,2.09 -2.7852,2.09 -0.8594,0 -1.6484,-0.226 -3.2148,-0.058 -0.5625,1.375 0.9336,2.773 1.9648,3.289 1.0313,0.519 1.7734,0.273 2.2227,0.441 0.6015,0.203 0.9609,2.098 4.3906,2.149 1.8008,0.027 4.4101,-1.223 5.6211,-1.223 1.1992,0 3.3398,0.781 3.5586,0.402 0.207,-0.402 -0.8594,-1.633 -0.6524,-2.715 -0.0976,-2.511 4.2383,-12.433 8.8203,-13.371 4.5704,0.938 8.9297,10.86 8.8243,13.371 0.2109,1.082 -0.8594,2.313 -0.6524,2.715 0.2227,0.379 2.3711,-0.402 3.5703,-0.402 1.1992,0 3.8086,1.25 5.6211,1.223 3.4258,-0.051 3.7891,-1.946 4.3906,-2.149 0.4493,-0.168 1.1758,0.078 2.2071,-0.441 1.0316,-0.516 2.5276,-1.914 1.9726,-3.289 -1.5625,-0.168 -2.3632,0.058 -3.2226,0.058 -1.1602,0 -2.6797,-1.23 -2.7696,-2.09 -0.0195,-0.148 3.254,-0.332 4.8792,-0.382 5.133,-0.176 3.414,2.968 3.375,3.117 -0.133,0.613 2.785,-0.039 2.785,-2.356 0,-1.933 -3.34,-3.047 -6.117,-2.8 -2.1839,0.183 -4.7229,1.211 -5.3245,1.296 -0.2461,0.04 -1.6875,-2.988 0.6719,-2.968 0.9414,0 1.9101,0.547 1.9101,0.547 0.4727,0 1.3321,-1.426 -1.8476,-2.11 -4.4844,-0.976 -6.8516,-1.062 -7.8906,-3.984 -0.8086,-2.195 -0.4844,-4.551 0.7265,-6.524 3.4414,-5.625 14.4332,-4.785 17.0232,-1.316 0.887,1.18 1.039,2.832 -0.051,2.832 -3.097,-0.273 -7.8394,-0.773 -8.0503,3.074 0.0508,3.235 5.5503,3.196 10.6213,8.36 3.988,4.074 4.808,6.73 5.148,8.847 0.102,0.637 0.129,2.61 0.129,2.61 0.102,0.625 1.652,-1.887 1.82,-2.344 1.145,-2.988 0.305,-6.281 0.305,-6.281 1.176,1.015 2.656,2.675 3.34,3.918 0.398,0.73 0.996,1.738 1.258,2.304 0.39,0.809 0.547,-2.031 0.168,-4.172 -0.559,-3.125 -3.36,-5.722 -3.36,-5.722 5.532,0.019 7.774,6.308 7.774,6.308 4.219,-4.902 -2.453,-11.218 -2.453,-11.218 0,0 0.82,-0.286 2.031,0.019 1.539,0.391 2.559,0.742 3.559,1.922 0.988,1.152 -0.063,-2.82 -2.739,-4.492 -4.539,-2.86 -9.168,-3.125 -9.168,-3.125 0.899,-2.156 4.649,-2.559 6.785,-2.371 2.922,0.261 5.305,2.332 5.305,2.332 3.305,-5.899 -5.285,-9.707 -5.914,-9.989 2.383,-1.835 4.274,-2.667 5.582,-2.871 0.602,-0.097 1.078,-0.05 1.496,0.086 0.285,0.02 -0.715,-1.484 -3.109,-1.211 -4.008,0.442 -7.5,1.672 -7.5,1.672 5.351,-11.359 11.89,-10.929 12.394,-10.879 0,0 0,-5.039 -7.011,-5.039 -0.364,0 -0.707,0.028 -1.063,0.078 -2.586,0.399 -4.816,2.118 -5.086,2.332 0.11,-3.71 8.317,-7.605 8.317,-7.605 0.433,-0.391 -1.836,-1.223 -4.813,-0.742 -1.496,0.222 -3.168,0.769 -4.777,1.883 -3.789,2.589 -6.856,8.066 -7.129,8.566 -2.102,-8.605 4.883,-12.656 6.609,-12.891 1.039,-0.136 -1.582,-1.359 -4.199,-0.949 -0.492,0.09 -0.98,0.215 -1.449,0.41 -4.883,2.149 -7.602,7.16 -7.852,7.629 -0.097,-0.41 -1.011,-4.699 2.481,-8.769 0.121,-0.149 -0.18,-0.176 -0.649,-0.11 -0.593,0.098 -1.453,0.352 -2.109,0.813 -2.6837,1.914 -4.8751,5.039 -5.3322,9.012 -2.3671,-0.43 -4.0468,-2.735 -4.8671,-4.571 -0.8008,-1.679 -0.7735,-3.789 0.1406,-5.32 1.2578,-2.188 2.5469,-3.242 4.2383,-3.574 1.4101,-0.293 2.8984,-0.235 4.2774,-0.481 1.219,-0.215 2.351,-0.644 3.269,-1.738 1.321,-1.551 0.325,-5.215 -1.785,-4.656 0,0 0.7,1.738 -0.695,3.066 -0.508,0.359 -1.039,0.586 -1.5469,0.664 -1.0586,0.156 -2.043,-0.312 -2.6328,-1.418 -1.2891,-2.422 3.5117,-5.379 5.8127,-6.297 0,0 1.238,-0.793 2.586,-1.007 1.363,-0.204 2.832,0.207 3.183,2.675 -0.492,0.469 -1.769,0.684 -1.73,3.047 0.043,1.895 1.558,2.695 1.558,2.695 0.543,2.297 4.04,2.141 4.04,2.141 0.312,-0.078 0.042,-0.234 -0.145,-0.305 -0.902,-0.32 -1.125,-1.093 -0.941,-1.668 0.168,-0.578 1.925,-1.66 0.539,-5.324 0.23,-0.027 1.808,-0.097 2.101,2.461 0.106,0.988 -0.23,1.906 0.192,2.707 0.343,0.672 1.277,1.153 2.269,0.86 1.039,0.39 1.867,0.476 2.527,0.359 1.903,-0.273 2.36,-2.078 2.36,-2.078 0,0 0.027,-0.215 -0.18,-0.168 -0.172,0.058 -0.402,0.117 -0.66,0.156 -0.918,0.149 -2.129,0.059 -1.93,-0.633 0.129,-0.461 0.52,-1.105 -0.472,-2.383 -1.446,-1.855 -4.469,-0.546 -3.559,-4.406 0.121,0.196 0.895,1.223 2.563,1.067 1.394,-0.129 2.867,-1.77 2.855,-4.094 -0.047,-0.879 -0.387,-1.629 -1.195,-2.176 0,0 -0.133,0.098 -0.094,0.254 0.25,1.043 -0.18,1.766 -0.945,1.922 -1.461,0.129 -0.985,-0.965 -2.774,-0.926 -0.238,0 -0.461,0.02 -0.66,0.059 -0.68,0.097 -1.098,0.332 -1.539,0.39 -0.141,0.02 -0.281,0.028 -0.418,0.008 -2.269,-0.293 -5.172,-1.973 -6.223,-3.543 -1.039,-1.574 0.133,-2.031 -0.82,-3.496 -0.809,-1.25 -1.738,-1.152 -1.738,-1.152 0,0 -0.043,-0.352 0.012,-0.793 0.019,-0.176 0.046,-0.34 0.105,-0.528 m -6,-2.253 c 1.4218,0.417 2.984,0.976 4.59,1.648 -0.188,0.273 -0.356,0.644 -0.488,1.133 -0.098,0.363 -0.172,0.812 -0.2,1.34 0,0 -1.32,1.238 -0.726,2.793 0.726,1.941 2.445,1.355 1.734,3.652 -0.801,2.559 -5.7147,6.844 -8.8241,7.332 -0.7539,0.109 -1.3945,0 -1.8437,-0.398 -1.0508,-0.958 -1.2579,-3.633 2.0703,-3.848 -0.6836,-1.399 -1.8321,-1.777 -3.7383,-1.328 -1.5117,0.34 -3.0703,2.676 -2.4727,5.722 0.793,3.973 -1.6875,7.137 -4.082,7.52 -0.3281,0.047 -0.668,0.047 -0.9844,-0.02 -2.8242,-0.48 -2.3633,-4.621 -2.3633,-4.621 l 1.4493,-16.101 c -0.0782,-0.5 0.1406,-1.25 0.6211,-2.043 0.9336,-1.543 2.8125,-3.27 5.4765,-3.848 2.293,-0.43 4.1211,0.129 4.7305,0.93 0.1641,0.242 1.1523,1.738 0.6523,2.918 -0.1562,0.351 -0.4492,0.683 -0.9375,0.949 -0.1445,0.059 -0.2734,0.098 -0.4023,0.117 -0.8399,0.125 -1.3789,-0.664 -1.543,-0.558 -0.4375,1.093 0.2031,3.097 3.1758,2.539 2.0039,-0.371 2.707,-1.707 2.8672,-3.047 0.1992,-1.551 -0.3281,-3.114 -0.3281,-3.114 0,0 0.6289,0.223 1.5664,0.333 m -8.2969,-5.743 c -0.0313,0.235 -0.0625,0.711 0.0195,1.278 -2.1797,0.625 -4.5703,0.968 -5.9101,1.672 -2.5117,1.199 -3.543,2.753 -3.543,2.753 0,0 -0.1445,-0.195 -0.1172,-1.132 0.5274,-4.7 3.3399,-4.903 6.168,-5.547 1.25,-0.332 2.6133,-1.145 3.3828,-2.434 l 0,3.41 z M 190.934,142.617 c -0.442,-0.918 -0.422,-2.644 0.222,-3.496 2.352,-3.125 11.598,-4.109 15.871,-0.078 -5.535,0.859 -10.742,2.297 -16.093,3.574 m 25.75,8.653 c 1.382,-1.856 2.968,-3.321 4.589,-3.641 4.582,0.926 8.93,10.859 8.821,13.367 0.211,1.067 -0.852,2.305 -0.641,2.707 0.219,0.379 2.363,-0.402 3.559,-0.402 1.203,0 3.824,1.25 5.621,1.222 3.433,-0.05 3.793,-1.933 4.394,-2.148 0.45,-0.156 1.188,0.078 2.207,-0.441 1.039,-0.508 2.539,-1.914 1.985,-3.289 -1.574,-0.157 -2.364,0.058 -3.227,0.058 -1.156,0 -2.679,-1.23 -2.777,-2.09 -0.008,-0.136 3.258,-0.332 4.879,-0.383 5.133,-0.164 3.414,2.969 3.371,3.125 -0.117,0.598 2.793,-0.039 2.793,-2.363 0,-1.933 -3.34,-3.035 -6.113,-2.801 -2.192,0.196 -4.727,1.211 -5.329,1.309 -0.25,0.039 -1.679,-3 0.668,-2.98 0.942,0 1.911,0.558 1.911,0.558 0.472,0 1.332,-1.437 -1.852,-2.109 -4.477,-0.989 -6.836,-1.074 -7.887,-3.996 -0.808,-2.188 -0.48,-4.551 0.731,-6.524 3.441,-5.613 14.426,-4.773 17.019,-1.328 0.891,1.192 1.039,2.844 -0.051,2.844 -3.097,-0.274 -7.839,-0.774 -8.05,3.086 0.05,3.222 5.55,3.183 10.621,8.359 4,4.063 4.808,6.727 5.152,8.848 0.098,0.625 0.125,2.597 0.125,2.597 0.106,0.633 1.652,-1.875 1.82,-2.343 1.141,-2.989 0.301,-6.282 0.301,-6.282 1.18,1.016 2.66,2.688 3.348,3.926 0.391,0.735 0.992,1.739 1.25,2.285 0.391,0.821 0.562,-2.019 0.172,-4.16 -0.559,-3.113 -3.36,-5.722 -3.36,-5.722 5.532,0.031 7.778,6.32 7.778,6.32 4.215,-4.902 -2.453,-11.223 -2.453,-11.223 0,0 0.828,-0.293 2.023,0.012 1.543,0.398 2.574,0.75 3.574,1.922 0.977,1.152 -0.07,-2.813 -2.754,-4.481 -4.535,-2.863 -9.168,-3.136 -9.168,-3.136 0.903,-2.149 4.653,-2.559 6.789,-2.371 2.922,0.261 5.301,2.332 5.301,2.332 3.321,-5.887 -5.277,-9.696 -5.91,-9.989 2.379,-1.828 4.27,-2.656 5.594,-2.871 0.59,-0.09 1.066,-0.051 1.488,0.086 0.277,0.02 -0.719,-1.472 -3.109,-1.211 -4.012,0.442 -7.5,1.672 -7.5,1.672 5.347,-11.359 11.886,-10.93 12.39,-10.879 0,0 0,-5.039 -7.011,-5.039 -0.364,0 -0.711,0.027 -1.059,0.078 -2.594,0.399 -4.82,2.129 -5.094,2.332 0.114,-3.711 8.321,-7.597 8.321,-7.597 0.429,-0.391 -1.84,-1.219 -4.809,-0.75 -1.5,0.234 -3.172,0.781 -4.781,1.894 -3.781,2.586 -6.852,8.067 -7.117,8.555 -2.102,-8.606 4.867,-12.649 6.609,-12.891 1.039,-0.129 -1.582,-1.347 -4.199,-0.937 -0.504,0.066 -0.992,0.203 -1.461,0.41 -4.883,2.137 -7.602,7.148 -7.852,7.617 -0.101,-0.41 -1,-4.687 2.492,-8.781 0.106,-0.125 -0.191,-0.156 -0.66,-0.086 -0.582,0.086 -1.449,0.351 -2.109,0.808 -2.68,1.907 -4.871,5.04 -5.332,9.004 -2.367,-0.429 -4.047,-2.722 -4.867,-4.558 -0.801,-1.692 -0.774,-3.801 0.144,-5.324 1.25,-2.196 2.543,-3.243 4.235,-3.5942 1.406,-0.2812 2.902,-0.2226 4.277,-0.4687 1.223,-0.2149 2.351,-0.6446 3.269,-1.7266 1.321,-1.5625 0.332,-5.2266 -1.789,-4.6602 0,0 0.704,1.7383 -0.687,3.0586 -0.512,0.3711 -1.043,0.586 -1.539,0.6719 -1.074,0.1563 -2.043,-0.3125 -2.645,-1.4258 -1.289,-2.4218 3.512,-5.3789 5.813,-6.2968 0,0 1.25,-0.793 2.59,-0.9961 1.371,-0.2149 2.832,0.1953 3.191,2.664 -0.504,0.4688 -1.781,0.6953 -1.734,3.0469 0.031,1.8945 1.554,2.707 1.554,2.707 0.536,2.2852 4.047,2.1368 4.047,2.1368 0.305,-0.0782 0.039,-0.2422 -0.16,-0.3125 -0.898,-0.3125 -1.117,-1.0821 -0.937,-1.668 0.179,-0.5664 1.925,-1.6602 0.535,-5.3125 0.246,-0.0391 1.812,-0.1094 2.105,2.4492 0.117,0.9961 -0.234,1.9141 0.188,2.7148 0.347,0.6758 1.281,1.1524 2.269,0.8594 1.047,0.3906 1.867,0.4688 2.531,0.3633 1.903,-0.2852 2.372,-2.082 2.372,-2.082 0,0 0.019,-0.2344 -0.18,-0.1836 -0.172,0.0781 -0.41,0.1367 -0.672,0.1758 -0.922,0.1367 -2.129,0.0586 -1.93,-0.6446 0.129,-0.4609 0.52,-1.0937 -0.472,-2.375 -1.45,-1.8633 -4.465,-0.5547 -3.559,-4.414 0.133,0.1953 0.891,1.2304 2.559,1.0742 1.402,-0.1367 2.882,-1.7774 2.863,-4.1016 -0.051,-0.8672 -0.395,-1.6211 -1.203,-2.1679 0,0 -0.117,0.0976 -0.086,0.2343 0.258,1.0664 -0.184,1.7774 -0.953,1.9453 -1.461,0.1172 -0.969,-0.9765 -2.77,-0.9296 -0.238,0 -0.461,0.0195 -0.66,0.0507 -0.668,0.1055 -1.09,0.3321 -1.535,0.3985 -0.133,0.0195 -0.274,0.0312 -0.422,0.0117 -2.269,-0.293 -5.172,-1.9727 -6.223,-3.5547 -1.039,-1.582 0.129,-2.0312 -0.816,-3.4883 -0.805,-1.25 -1.746,-1.1601 -1.746,-1.1601 0,0 -0.039,-0.3516 0.012,-0.793 0.082,-0.6133 0.332,-1.3945 1.132,-1.5703 0,0 0.247,-0.1172 0.028,-0.1758 -0.246,-0.0781 -0.727,-0.2266 -1.25,-0.1367 -0.641,0.0976 -1.348,0.5351 -1.699,1.8828 -0.102,0.3711 -0.168,0.8203 -0.2,1.3398 0,0 -1.316,1.2383 -0.73,2.8008 0.73,1.9453 2.449,1.3477 1.742,3.6524 -0.793,2.5586 -5.723,6.8359 -8.836,7.3242 -0.746,0.1172 -1.387,0 -1.836,-0.4102 -1.047,-0.9453 -1.258,-3.6133 2.07,-3.8359 -0.671,-1.3867 -1.828,-1.7695 -3.738,-1.3281 -1.504,0.3515 -3.07,2.6757 -2.472,5.7226 0.789,3.9727 -1.688,7.1485 -4.071,7.5274 -0.336,0.0507 -0.679,0.0507 -1,-0.0196 -2.816,-0.4765 -2.359,-4.6172 -2.359,-4.6172 l 1.449,-16.1054 c -0.078,-0.4961 0.145,-1.25 0.621,-2.0508 0.93,-1.543 2.82,-3.2695 5.481,-3.8359 2.289,-0.4297 4.129,0.1171 4.73,0.9179 0.16,0.2539 1.149,1.7383 0.649,2.918 -0.161,0.3633 -0.45,0.6953 -0.938,0.9492 -0.141,0.0586 -0.273,0.1055 -0.391,0.125 -0.847,0.1172 -1.382,-0.664 -1.55,-0.5664 -0.442,1.1055 0.199,3.1055 3.179,2.5313 2,-0.3711 2.7,-1.6993 2.868,-3.0391 0.191,-1.5508 -0.336,-3.1055 -0.336,-3.1055 0,0 1.726,0.6055 3.781,0.293 0.187,-0.0273 0.379,-0.0664 0.578,-0.1172 1.598,-0.6523 2.73,-1.4258 2.961,-3.1445 0.258,-1.9805 -1.449,-2.9492 -1.449,-2.9492 0,0 0.523,1.4375 -0.985,2.3164 -0.41,0.2031 -0.781,0.3398 -1.129,0.3906 -1.98,0.3008 -2.992,-1.7188 -2.879,-3.2539 0.133,-2.4414 -0.476,-4.3633 -2.308,-4.6289 -0.422,-0.0274 -0.774,-0.0078 -1.063,0.0312 -1.332,0.2032 -1.429,1.0157 -1.429,1.0157 0,0 1.976,-0.1758 1.922,1.6406 0.199,4.5195 -7.704,4.4219 -10.622,5.9453 -2.511,1.2031 -3.531,2.7461 -3.531,2.7461 0,0 -0.16,-0.1875 -0.129,-1.125 0.532,-4.707 3.34,-4.9024 6.168,-5.5547 1.879,-0.5 4.008,-2.0703 4.008,-4.7266 0,-3.7695 -2.476,-3.3593 -2.476,-3.3593 0,0 0.988,2.9961 -1.743,3.4257 -0.199,0.0313 -0.425,0.0508 -0.675,0.0508 -1.543,0 -2.422,-0.7812 -3.352,-1.5156 -1.449,-1.1602 -5.75,-6.1992 -6.59,-7.0195 -0.84,0.8203 -5.152,5.8593 -6.601,7.0195 -0.93,0.7344 -1.809,1.5156 -3.352,1.5156 -0.246,0 -0.469,-0.0195 -0.68,-0.0508 -2.726,-0.4296 -1.734,-3.4257 -1.734,-3.4257 0,0 -2.48,-0.4102 -2.48,3.3593 0,2.6563 2.125,4.2266 4.007,4.7266 2.832,0.6523 5.641,0.8477 6.172,5.5547 0.028,0.9375 -0.133,1.125 -0.133,1.125 0,0 -1.019,-1.543 -3.531,-2.7461 -2.918,-1.5234 -10.82,-1.4258 -10.617,-5.9453 -0.063,-1.8164 1.918,-1.6406 1.918,-1.6406 0,0 -0.098,-0.8125 -1.426,-1.0157 -0.293,-0.039 -0.644,-0.0586 -1.066,-0.0312 -1.824,0.2656 -2.438,2.1875 -2.309,4.6289 0.113,1.5351 -0.898,3.5547 -2.875,3.2539 -0.351,-0.0508 -0.723,-0.1875 -1.133,-0.3906 -1.507,-0.8789 -0.98,-2.3164 -0.98,-2.3164 0,0 -1.711,0.9687 -1.453,2.9492 0.234,1.7187 1.363,2.4922 2.965,3.1445 0.199,0.0508 0.39,0.0899 0.578,0.1172 2.058,0.3125 3.781,-0.293 3.781,-0.293 0,0 -0.531,1.5547 -0.34,3.1055 0.172,1.3398 0.867,2.668 2.879,3.0391 2.969,0.5742 3.609,-1.4258 3.172,-2.5313 -0.172,-0.0976 -0.699,0.6836 -1.551,0.5664 -0.121,-0.0195 -0.254,-0.0664 -0.391,-0.125 -0.492,-0.2539 -0.781,-0.5859 -0.941,-0.9492 -0.496,-1.1797 0.492,-2.6641 0.649,-2.918 0.601,-0.8008 2.441,-1.3476 4.734,-0.9179 2.66,0.5664 4.551,2.2929 5.476,3.8359 0.485,0.8008 0.704,1.5547 0.622,2.0508 l 1.449,16.1054 c 0,0 0.461,4.1407 -2.36,4.6172 -0.32,0.0703 -0.66,0.0703 -0.992,0.0196 -2.387,-0.3789 -4.867,-3.5547 -4.074,-7.5274 0.594,-3.0469 -0.965,-5.3711 -2.473,-5.7226 -1.91,-0.4414 -3.07,-0.0586 -3.738,1.3281 3.328,0.2226 3.117,2.8906 2.07,3.8359 -0.449,0.4102 -1.093,0.5274 -1.839,0.4102 -3.114,-0.4883 -8.043,-4.7656 -8.833,-7.3242 -0.71,-2.3047 1.008,-1.7071 1.743,-3.6524 0.59,-1.5625 -0.735,-2.8008 -0.735,-2.8008 -0.027,-0.5195 -0.097,-0.9687 -0.199,-1.3398 -0.348,-1.3477 -1.059,-1.7852 -1.699,-1.8828 -0.52,-0.0899 -1,0.0586 -1.25,0.1367 0.828,0.3516 1.078,1.1328 1.16,1.7461 0.051,0.4414 0.012,0.793 0.012,0.793 0,0 -0.946,-0.0899 -1.742,1.1601 -0.95,1.4571 0.222,1.9063 -0.817,3.4883 -1.051,1.582 -3.949,3.2617 -6.223,3.5547 -0.152,0.0195 -0.292,0.0078 -0.417,-0.0117 -0.45,-0.0664 -0.872,-0.293 -1.543,-0.3985 -0.204,-0.0312 -0.422,-0.0507 -0.661,-0.0507 -1.8,-0.0469 -1.308,1.0468 -2.769,0.9296 -0.77,-0.1679 -1.211,-0.8789 -0.949,-1.9453 0.027,-0.1367 -0.09,-0.2343 -0.09,-0.2343 -0.813,0.5468 -1.153,1.3007 -1.199,2.1679 -0.024,2.3242 1.457,3.9649 2.859,4.1016 1.672,0.1562 2.441,-0.8789 2.559,-1.0742 0.91,3.8593 -2.11,2.5507 -3.559,4.414 -0.992,1.2813 -0.602,1.9141 -0.469,2.375 0.199,0.7032 -1.012,0.7813 -1.933,0.6446 -0.258,-0.0391 -0.5,-0.0977 -0.661,-0.1758 -0.191,0.1836 0.286,1.9804 2.184,2.2656 0.656,0.1055 1.488,0.0273 2.527,-0.3633 0.993,0.293 1.918,-0.1836 2.274,-0.8594 0.418,-0.8007 0.066,-1.7187 0.187,-2.7148 0.289,-2.5586 1.864,-2.4883 2.102,-2.4492 -1.395,3.6523 0.359,4.7461 0.535,5.3125 0.184,0.5859 -0.039,1.3555 -0.937,1.668 -0.2,0.0703 -0.457,0.2343 -0.161,0.3125 0,0 3.512,0.1484 4.051,-2.1368 0,0 1.52,-0.8125 1.551,-2.707 0.047,-2.3516 -1.231,-2.5781 -1.731,-3.0469 0.36,-2.4687 1.817,-2.8789 3.192,-2.664 1.336,0.2031 2.586,0.9961 2.586,0.9961 2.301,0.9179 7.105,3.875 5.808,6.2968 -0.597,1.1133 -1.566,1.5821 -2.632,1.4258 -0.504,-0.0859 -1.032,-0.3008 -1.543,-0.6719 -1.387,-1.3203 -0.692,-3.0586 -0.692,-3.0586 -2.117,-0.5664 -3.109,3.0977 -1.793,4.6602 0.926,1.082 2.055,1.5117 3.274,1.7266 1.383,0.2461 2.871,0.1875 4.281,0.4687 1.691,0.3512 2.98,1.3982 4.23,3.5942 0.918,1.523 0.946,3.632 0.153,5.324 -0.824,1.836 -2.5,4.129 -4.875,4.558 -0.457,-3.964 -2.649,-7.097 -5.328,-9.004 -0.661,-0.457 -1.532,-0.722 -2.11,-0.808 -0.472,-0.07 -0.769,-0.039 -0.664,0.086 3.5,4.094 2.594,8.371 2.492,8.781 -0.25,-0.469 -2.968,-5.48 -7.847,-7.617 -0.473,-0.207 -0.961,-0.344 -1.461,-0.41 -2.613,-0.41 -5.231,0.808 -4.203,0.937 1.742,0.242 8.711,4.285 6.613,12.891 -0.27,-0.488 -3.332,-5.969 -7.121,-8.555 -1.61,-1.113 -3.281,-1.66 -4.781,-1.894 -2.969,-0.469 -5.239,0.359 -4.809,0.75 0,0 8.207,3.886 8.32,7.597 -0.269,-0.203 -2.5,-1.933 -5.09,-2.332 -0.347,-0.051 -0.703,-0.078 -1.062,-0.078 -7.008,0 -7.008,5.039 -7.008,5.039 0.5,-0.051 7.043,-0.48 12.391,10.879 0,0 -3.492,-1.23 -7.5,-1.672 -2.391,-0.261 -3.391,1.231 -3.113,1.211 0.421,-0.137 0.906,-0.176 1.492,-0.086 1.32,0.215 3.211,1.043 5.59,2.871 -0.629,0.293 -9.231,4.102 -5.911,9.989 0,0 2.379,-2.071 5.297,-2.332 2.145,-0.188 5.895,0.222 6.793,2.371 0,0 -4.629,0.273 -9.168,3.136 -0.14,0.086 -0.277,0.176 -0.41,0.274 -2.07,0.008 -4.211,-0.098 -6.433,-0.324 -1.469,-5.75 -6.239,-9.969 -11.887,-9.969 -5.629,0 -10.383,4.18 -11.871,9.883 -3.672,0.652 -7.2,0.742 -10.649,0.457 L 49.9063,59.707 C 57.6758,52.4336 66.1758,46.2695 75.043,41.1328 l 75.273,80.1482 0,-42.4216 -47.269,-50.3438 c 17.187,-5.8086 34.516,-8.4375 49.867,-8.4375 58.703,0 146.371,38.4571 144.371,146.0669 l 0,69.218 -37.613,-40.058 -39.848,0 77.461,82.5 0,45.351 -81.211,-86.496 c 0.371,-0.301 0.59,-0.652 0.59,-1.035 l 0.02,-84.355 z m -8.758,-25.946 26.719,0 0,10.742 -26.731,0 0.012,-10.742 z m 13.359,-20.957 c 12.012,0 13.063,11.348 13.063,11.348 l -26.211,0 c 0,0 1.125,-11.348 13.148,-11.348 m -159.3592,186.992 26.7187,0 0,10.731 -26.7304,0 0.0117,-10.731 z m 13.3555,-20.968 c 12.0156,0 13.0625,11.359 13.0625,11.359 l -26.211,0 c 0,0 1.1328,-11.359 13.1485,-11.359 M 147.363,146.867 c 0,-3.176 2.582,-5.754 5.75,-5.754 3.18,0 5.754,2.578 5.754,5.754 0,3.164 -2.574,5.75 -5.754,5.75 -3.168,0 -5.75,-2.586 -5.75,-5.75 m -54.2107,86.582 0,-88.136 c 0,0 0.9649,-1.18 6.8517,0.429 6.781,1.856 15.191,10.488 26.969,13.067 8.843,1.914 20.761,-0.868 23.539,-2.793 l 0,88.293 c 0,0 -5.336,5.234 -14.117,5.234 -8.567,0 -23.02,-7.695 -28.579,-10.488 -4.843,-2.414 -9.9293,-4.239 -13.6402,-4.602 -1.1172,-0.098 -1.0235,-1.004 -1.0235,-1.004 m 77.2617,-74.433 c 15.309,0 23.281,-9.493 28.473,-11.563 12.09,-4.805 14.117,-2.344 14.117,-2.344 l 0,88.594 c 0,0.86 -1.281,0.86 -1.281,0.86 0,0 -11.785,1.816 -15.84,4.285 -3.848,2.343 -18.188,10.918 -28.676,10.918 -10.523,0 -12.41,-4.5 -12.41,-4.5 l 0,-89.465 c 0,0 4.922,3.215 15.617,3.215" /></g></g></svg>